<?xml version="1.0" encoding="utf-8"?>
<!-- Generator: Adobe Illustrator 19.0.0, SVG Export Plug-In . SVG Version: 6.00 Build 0)  -->
<svg version="1.1" id="Layer_1" xmlns="http://www.w3.org/2000/svg" xmlns:xlink="http://www.w3.org/1999/xlink" x="0px" y="0px"
	 viewBox="142.8 156.3 290 287.8" style="enable-background:new 142.8 156.3 290 287.8;" xml:space="preserve">
<style type="text/css">
	.st0{fill:#2199D5;}
</style>
<g>
	<g transform="translate(7.000000, 7.000000)">
		<path class="st0" d="M345.2,331.5l75.3,75.3c6.9,6.9,6.9,18.2,0,25.1l0,0c-6.9,6.9-18.2,6.9-25.1,0l-75.3-75.3
			c-6.9-6.9-6.9-18.2,0-25.1l0,0C327.1,324.6,338.3,324.6,345.2,331.5z"/>
		<path class="st0" d="M256.4,390.6c-66.6,0-120.6-54-120.6-120.6c0-66.6,54-120.6,120.6-120.6c66.6,0,120.6,54,120.6,120.6
			C377.1,336.5,323,390.6,256.4,390.6z M256.4,354.9c47,0,85-38.1,85-85s-38.1-85-85-85s-85,38.1-85,85S209.5,354.9,256.4,354.9z"/>
	</g>
</g>
</svg>
