<?xml version="1.0" encoding="utf-8"?>
<!-- Generator: Adobe Illustrator 22.1.0, SVG Export Plug-In . SVG Version: 6.00 Build 0)  -->
<svg version="1.1" id="Layer_1" xmlns="http://www.w3.org/2000/svg" xmlns:xlink="http://www.w3.org/1999/xlink" x="0px" y="0px"
	 viewBox="170.1 277.3 377.6 394.1" style="enable-background:new 170.1 277.3 377.6 394.1;" xml:space="preserve">
<style type="text/css">
	.st0{fill:#FFFFFF;}
</style>
<g>
	<path class="st0" d="M356.7,326.3c-13.5,0-24.5-11-24.5-24.5c0-13.5,11-24.5,24.5-24.5c13.5,0,24.5,11,24.5,24.5
		C381.8,315.3,370.8,326.3,356.7,326.3z M194.6,472c-13.5,0-24.5-11-24.5-24.5c0-13.5,11-24.5,24.5-24.5c13.5,0,24.5,11,24.5,24.5
		C219,460.9,208,472,194.6,472z M194.6,399.1c-13.5,0-24.5-11-24.5-24.5s11-24.5,24.5-24.5c13.5,0,24.5,11,24.5,24.5
		S208,399.1,194.6,399.1z M194.6,326.3c-13.5,0-24.5-11-24.5-24.5c0-13.5,11-24.5,24.5-24.5c13.5,0,24.5,11,24.5,24.5
		C219,315.3,208,326.3,194.6,326.3z M276,472c-13.5,0-24.5-11-24.5-24.5c0-13.5,11-24.5,24.5-24.5c13.5,0,24.5,11,24.5,24.5
		C300.4,460.9,289.4,472,276,472z M276,399.1c-13.5,0-24.5-11-24.5-24.5s11-24.5,24.5-24.5c13.5,0,24.5,11,24.5,24.5
		S289.4,399.1,276,399.1z M276,326.3c-13.5,0-24.5-11-24.5-24.5c0-13.5,11-24.5,24.5-24.5c13.5,0,24.5,11,24.5,24.5
		C300.4,315.3,289.4,326.3,276,326.3z"/>
	<path class="st0" d="M546.5,576.6c0-0.6,0-1.2,0-1.8L529.3,483c-2.4-12.2-12.9-21.4-25.1-20.8c-8.6,0.6-15.3,4.9-19.6,11.6
		c-4.3-9.8-15.3-15.9-26.3-14.1c-7.3,1.2-12.9,6.1-16.5,11.6c-4.9-9.2-15.3-14.1-25.7-12.2c-6.7,1.2-12.2,4.9-15.3,10.4l-16.5-90
		c-2.4-12.2-12.9-21.4-25.1-20.8c-14.7,0.6-25.1,14.7-22.6,28.8l30,159.7c0.6,3.1-3.1,5.5-5.5,3.1l-35.5-36.7
		c-8.6-8.6-22.6-8-32.4,1.2c-9.8,9.2-10.4,23.9-2.4,32.4c0,0,99.1,102.2,99.8,102.8c17.7,17.1,42.8,24.5,67.3,20.2l27.5-4.9
		C526.3,657.4,553.8,617.6,546.5,576.6z"/>
</g>
</svg>
