<?xml version="1.0" encoding="utf-8"?>
<!-- Generator: Adobe Illustrator 19.0.0, SVG Export Plug-In . SVG Version: 6.00 Build 0)  -->
<svg version="1.1" id="Layer_1" xmlns="http://www.w3.org/2000/svg" xmlns:xlink="http://www.w3.org/1999/xlink" x="0px" y="0px"
	 viewBox="0 0 150.2 102.9" style="enable-background:new 0 0 150.2 102.9;" xml:space="preserve">
<style type="text/css">
	.st0{clip-path:url(#SVGID_2_);fill:#FFFFFF;}
</style>
<g>
	<defs>
		<rect id="SVGID_1_" y="0" width="150.2" height="102.9"/>
	</defs>
	<clipPath id="SVGID_2_">
		<use xlink:href="#SVGID_1_"  style="overflow:visible;"/>
	</clipPath>
	<path class="st0" d="M123,65.2l-9.9-2.2v-4.3c5.6-4.7,9.3-11.3,10.2-18.6l0.6-4.6c0.4-2.8,0.6-5.6,0.6-8.5c0-1.1,0-2.3-0.1-3.5
		c-0.4-6.4-3.1-12.3-7.8-16.7C112,2.4,105.9,0,99.5,0c-6.4,0-12.4,2.4-17.1,6.8c-4.6,4.4-7.4,10.3-7.8,16.7c-0.2,4-0.1,8,0.5,12
		l0.6,4.6c0.6,4,1.9,7.8,4,11.3c1.7,2.8,3.8,5.2,6.2,7.3V63L76,65.2c-14.4,3.2-25.2,15.5-26.8,30H7.4v-5.7c0-9.7,6.9-18.3,16.3-20.4
		L34,66.8c1.7-0.4,2.9-1.9,2.9-3.7v-7.3c0-1.2-0.6-2.3-1.5-3c-1.8-1.3-3.3-3-4.4-4.9c-1.2-2-2-4.2-2.3-6.5l-0.5-3.7
		c-0.4-2.7-0.5-5.5-0.3-8.3c0.2-3.4,1.6-6.5,4.1-8.8c2.4-2.3,5.6-3.6,9-3.6s6.6,1.3,9,3.6c2.5,2.3,3.9,5.5,4.1,8.8
		c0,0.8,0.1,1.6,0.1,2.4c0,2-0.1,4-0.4,5.9l-0.5,3.7c-0.6,4.5-3.1,8.6-6.7,11.3c-1,0.7-1.5,1.8-1.5,3V63c0,1.8,1.2,3.3,2.9,3.7
		l6.1,1.3c2,0.4,4-0.8,4.5-2.9c0.4-2-0.8-4-2.9-4.5l-3.2-0.7v-2.5c4.4-3.8,7.4-9.3,8.2-15.1l0.5-3.7c0.3-2.3,0.5-4.6,0.5-6.9
		c0-0.9,0-1.9-0.1-2.8C61.3,23.6,59,18.7,55.2,15c-3.9-3.6-8.9-5.7-14.2-5.7s-10.3,2-14.2,5.7c-3.9,3.6-6.1,8.6-6.4,13.9
		c-0.2,3.2-0.1,6.5,0.4,9.7l0.5,3.7c0.5,3.3,1.6,6.5,3.3,9.3c1.3,2.2,3,4.1,4.9,5.8v2.5l-7.4,1.6C9.4,64.6,0,76.2,0,89.4v9.5
		c0,2.1,1.7,3.8,3.8,3.8h49.1c2.1,0,3.8-1.7,3.8-3.8c0-12.6,8.9-23.7,21.2-26.4l12.9-2.8c1.7-0.4,2.9-1.9,2.9-3.7v-9.1
		c0-1.2-0.6-2.3-1.5-3c-2.3-1.7-4.3-3.9-5.8-6.3c-1.6-2.6-2.6-5.4-3-8.4l-0.6-4.6c-0.5-3.5-0.6-7-0.4-10.5c0.2-4.5,2.2-8.6,5.4-11.7
		c3.2-3.1,7.5-4.8,11.9-4.8s8.7,1.7,11.9,4.8c3.2,3.1,5.2,7.2,5.4,11.7c0.1,1,0.1,2,0.1,3.1c0,2.5-0.2,5.1-0.5,7.5l-0.6,4.6
		c-0.8,5.9-4,11.3-8.8,14.8c-1,0.7-1.5,1.8-1.5,3v9.1c0,1.8,1.2,3.3,2.9,3.7l12.9,2.8c11,2.4,19.3,11.6,20.9,22.6H66.5
		c-2.1,0-3.8,1.7-3.8,3.8c0,2.1,1.7,3.8,3.8,3.8h79.9c1,0,1.9-0.4,2.7-1.1c0.8-0.7,1.1-1.7,1.1-2.7C150,82.8,138.6,68.7,123,65.2"/>
</g>
</svg>
