<?xml version="1.0" encoding="utf-8"?>
<!-- Generator: Adobe Illustrator 19.0.0, SVG Export Plug-In . SVG Version: 6.00 Build 0)  -->
<svg version="1.1" id="Layer_1" xmlns="http://www.w3.org/2000/svg" xmlns:xlink="http://www.w3.org/1999/xlink" x="0px" y="0px"
	 viewBox="0 0 62 52.3" style="enable-background:new 0 0 62 52.3;" xml:space="preserve">
<style type="text/css">
	.st0{clip-path:url(#SVGID_2_);fill:#2199D5;}
</style>
<g>
	<defs>
		<rect id="SVGID_1_" y="0" width="62" height="52.3"/>
	</defs>
	<clipPath id="SVGID_2_">
		<use xlink:href="#SVGID_1_"  style="overflow:visible;"/>
	</clipPath>
	<path class="st0" d="M62,26.2c0-2.2-1.8-4-4-4H14.2L30.4,7c1.7-1.5,1.8-4,0.4-5.6c-1.5-1.7-4-1.8-5.6-0.4C25.1,1,25,1.1,25,1.2
		L1.3,23.2c-1.6,1.5-1.7,4-0.2,5.7C1.1,29,1.2,29,1.3,29.1L25,51.2c1.6,1.5,4.1,1.4,5.7-0.2s1.4-4.1-0.2-5.7L14.2,30.2H58
		C60.2,30.2,62,28.4,62,26.2"/>
</g>
</svg>
