<?xml version="1.0" encoding="utf-8"?>
<!-- Generator: Adobe Illustrator 22.1.0, SVG Export Plug-In . SVG Version: 6.00 Build 0)  -->
<svg version="1.1" id="Layer_1" xmlns="http://www.w3.org/2000/svg" xmlns:xlink="http://www.w3.org/1999/xlink" x="0px" y="0px"
	 viewBox="0 48.3 612 556.4" style="enable-background:new 0 48.3 612 556.4;" xml:space="preserve">
<style type="text/css">
	.st0{fill:#1A7AAA;}
</style>
<g>
	<path class="st0" d="M7.3,316.1c11.8-9.6,40.3,9.2,46,12.7c17.9,11,52.4,33.1,72.8,46.2c6.1,16.6,28,27.6,56.5,34.1
		c25.5,5.8,80,9.6,129.8,9.6v0c5.8,0,10.5-4.7,10.5-10.5c0-5.8-4.1-10.6-10.5-10.5c-50.7,0.2-128.5-2.6-157.4-19.3
		c-5.7-3.3-9.6-9.6-9.6-13.7c0-9.1,4.5-14,16.9-19.7c5.9-2.6,13.5-4.5,22-5.9c9.1-0.9,19-1.3,29.4-1.3c55.6,0,111.3-20.1,138.7-20.1
		c41.7,0,70.4,3.2,100.6,19.5c66.8,36.1,109.6,69.3,159,106.3v161.2c-52.5-27.8-138-96.3-155.3-103.4
		c-30.5-12.5-105.2,5.5-160.8,5.5c-64.8,0-131.7-6-187.3-46.1c-27.4-19-76.3-71.3-99.6-108.3C1.7,340.6-6.1,327.1,7.3,316.1z"/>
	<path class="st0" d="M52.4,209l-20,19.9c0,0,86.2,48.9,208.6,48.9c122.5,0,208.6-48.9,208.6-48.9l-20-19.9
		c-34.7,15.6-102.6,40-188.7,40.1C155,249,87.1,224.5,52.4,209z M55.2,154.1l-22.7,22.6c0,0,86.2,48.9,208.6,48.9
		c122.5,0,208.6-48.9,208.6-48.9L427,154.1c-38.1,18.3-103.9,42.7-185.9,42.8C159.1,196.8,93.3,172.4,55.2,154.1z M241.1,173.4
		c122.5,0,208.6-58.7,208.6-58.7l-55.6-66.5c0,0-63.2,41.5-153,41.5c-89.8,0-153-41.5-153-41.5l-55.6,66.5
		C32.5,114.8,118.6,173.4,241.1,173.4z M409.6,107.4c-32.5,16.1-93.5,40-168.5,40c-75.5,0-136.2-23.9-168.5-39.9l21.8-26
		c27.5,13.6,80.3,34.3,146.8,34.3c66.4,0,119.3-20.8,146.8-34.3L409.6,107.4z"/>
</g>
</svg>
