<?xml version="1.0" encoding="utf-8"?>
<!-- Generator: Adobe Illustrator 19.0.0, SVG Export Plug-In . SVG Version: 6.00 Build 0)  -->
<svg version="1.1" id="Layer_1" xmlns="http://www.w3.org/2000/svg" xmlns:xlink="http://www.w3.org/1999/xlink" x="0px" y="0px"
	 viewBox="0 0 87.6 87.6" style="enable-background:new 0 0 87.6 87.6;" xml:space="preserve">
<style type="text/css">
	.st0{clip-path:url(#SVGID_2_);fill:#FFFFFF;}
</style>
<g>
	<defs>
		<rect id="SVGID_1_" width="87.6" height="87.6"/>
	</defs>
	<clipPath id="SVGID_2_">
		<use xlink:href="#SVGID_1_"  style="overflow:visible;"/>
	</clipPath>
	<path class="st0" d="M43.8,0C19.6,0,0,19.6,0,43.8C0,68,19.6,87.6,43.8,87.6C68,87.6,87.6,68,87.6,43.8C87.6,19.6,68,0,43.8,0
		 M79.8,26.8H64.2c-1.9-9.1-5.3-16.5-9.5-21.3C65.7,8.7,74.9,16.4,79.8,26.8 M4,43.8c0-4.4,0.7-8.8,2.2-13h16.4
		c-1.3,8.6-1.3,17.4,0,26H6.2C4.7,52.6,4,48.2,4,43.8 M25.7,43.8c0-4.4,0.3-8.7,1-13h15.1v26H26.7C26,52.5,25.7,48.1,25.7,43.8
		 M60.1,26.8H45.8V4.3C52,5.8,57.4,14.7,60.1,26.8 M41.8,4.3v22.5H27.5C30.1,14.7,35.5,5.8,41.8,4.3 M41.8,60.8v22.5
		c-6.2-1.6-11.6-10.5-14.3-22.5H41.8z M45.8,83.3V60.8h14.3C57.4,72.9,52,81.7,45.8,83.3 M45.8,56.8v-26h15.1c0.7,4.3,1,8.6,1,13
		c0,4.4-0.3,8.7-1,13H45.8z M65,30.8h16.4c2.9,8.4,2.9,17.6,0,26H65c0.7-4.3,1-8.6,1-13C66,39.4,65.6,35.1,65,30.8 M32.9,5.5
		c-4.3,4.7-7.6,12.2-9.5,21.3H7.8C12.7,16.4,21.8,8.7,32.9,5.5 M7.8,60.8h15.5c1.9,9.1,5.3,16.5,9.5,21.3
		C21.8,78.9,12.7,71.1,7.8,60.8 M54.7,82c4.3-4.7,7.6-12.2,9.5-21.3h15.5C74.9,71.1,65.7,78.9,54.7,82"/>
</g>
</svg>
