<?xml version="1.0" encoding="utf-8"?>
<!-- Generator: Adobe Illustrator 19.0.0, SVG Export Plug-In . SVG Version: 6.00 Build 0)  -->
<svg version="1.1" id="Layer_1" xmlns="http://www.w3.org/2000/svg" xmlns:xlink="http://www.w3.org/1999/xlink" x="0px" y="0px"
	 viewBox="27.4 65.7 556.6 507.8" style="enable-background:new 27.4 65.7 556.6 507.8;" xml:space="preserve">
<style type="text/css">
	.st0{fill:#1D96C3;}
</style>
<path class="st0" d="M575.3,340.9c-11.6,10.4-30,10.4-41.6,0c0,0-167.7-154.8-215.4-198.9c-9.2-9.2-15.3-9.2-24.5-0.6
	c-47.1,43.5-216,199.5-216,199.5c-11.6,10.4-30,10.4-41.6,0c-11.6-10.4-11.6-27.5,0-38.6L285.2,73.5c11.6-10.4,30-10.4,41.6,0
	L575.3,303C586.9,313.4,586.9,330.5,575.3,340.9z M146.3,337.2c16.5,0,29.4,13.5,29.4,29.4v124.2c0,0,0,23.9,23.9,23.9h213
	c23.9,0,23.9-23.9,23.9-23.9V366.6c0-16.5,13.5-29.4,29.4-29.4s29.4,13.5,29.4,29.4v177.5c0,16.5-13.5,29.4-29.4,29.4H146.3
	c-16.5,0-29.4-13.5-29.4-29.4V366.6C116.9,350.7,130.4,337.2,146.3,337.2z"/>
</svg>
