<?xml version="1.0" encoding="utf-8"?>
<!-- Generator: Adobe Illustrator 22.1.0, SVG Export Plug-In . SVG Version: 6.00 Build 0)  -->
<svg version="1.1" id="Layer_1" xmlns="http://www.w3.org/2000/svg" xmlns:xlink="http://www.w3.org/1999/xlink" x="0px" y="0px"
	 viewBox="0 101.3 612 604.4" style="enable-background:new 0 101.3 612 604.4;" xml:space="preserve">
<style type="text/css">
	.st0{fill:#FFFFFF;}
</style>
<g>
	<path class="st0" d="M7.3,417.1c11.8-9.6,40.3,9.2,46,12.7c17.9,11,52.4,33.1,72.8,46.2c6.1,16.6,28,27.6,56.5,34.1
		c25.5,5.8,80,9.6,129.8,9.6v0c5.8,0,10.5-4.7,10.5-10.5c0-5.8-4.1-10.6-10.5-10.5c-50.7,0.2-128.5-2.6-157.4-19.3
		c-5.7-3.3-9.6-9.6-9.6-13.7c0-9.1,4.5-14,16.9-19.7c5.9-2.6,13.5-4.5,22-5.9c9.1-0.9,19-1.3,29.4-1.3c55.6,0,111.3-20.1,138.7-20.1
		c41.7,0,70.4,3.2,100.6,19.5c66.8,36.1,109.6,69.3,159,106.3v161.2c-52.5-27.8-138-96.3-155.3-103.4
		c-30.5-12.5-105.2,5.5-160.8,5.5c-64.8,0-131.7-6-187.3-46.1c-27.4-19-76.3-71.3-99.6-108.3C1.7,441.6-6.1,428.1,7.3,417.1z"/>
</g>
<g>
	<path class="st0" d="M133,394.9l50.8,42.8c1.2,1.2,3.1,1.8,4.9,1.8c0.6,0,1.2,0,1.8,0l66.1-14.1c3.1,0,6.1-2.4,7.3-5.5v-0.6l0,0
		l0,0l16.5-66.7l0,0l0,0l0,0c0-0.6,0-1.2,0-1.8v-0.6c0-0.6,0-0.6,0-1.2v-0.6c0-0.6-0.6-0.6-0.6-1.2l-0.6-0.6c0,0,0-0.6-0.6-0.6
		c0,0,0,0-0.6-0.6l0,0l-53.2-43.5c-1.8-1.2-3.7-1.8-6.1-1.8l-67.3,13.5c-3.1,0.6-4.9,2.4-5.5,5.5l0,0l0,0l-16.5,67.3l0,0
		C127.5,390,129.3,393.7,133,394.9z M249.9,411.4l-51.4,11l12.9-50.8l30.6-6.1l20.8-4.3L249.9,411.4z M217.4,315.4l38.6,31.2
		L207,357l-38.6-31.8L217.4,315.4z M156.9,333.7l40.4,33.7l-12.9,50.8L144,384.5L156.9,333.7z"/>
	<path class="st0" d="M328.8,312.3L328.8,312.3L328.8,312.3l20.8,66.1c1.2,3.7,4.3,5.5,8,4.9l66.7,9.8c0.6,0,0.6,0,1.2,0
		c1.8,0,3.7-0.6,4.9-1.8l48.3-45.3c3.7-1.2,5.5-5.5,4.3-9.2l-20.8-66.1l0,0l0,0l0,0c0-0.6-0.6-1.2-0.6-1.8c0,0,0-0.6-0.6-0.6
		c0-0.6-0.6-0.6-0.6-1.2l-0.6-0.6c-0.6,0-0.6-0.6-1.2-0.6H458h-0.6h-0.6c0,0,0,0-0.6,0l-67.9-9.2c-2.4-0.6-4.3,0.6-6.1,1.8
		L331.3,305C328.8,306.2,328.2,309.2,328.8,312.3z M362.5,369.2l-15.3-49.6l52,8l15.3,49.6L362.5,369.2z M428.6,372.3l-15.3-49.6
		l16.5-15.3l22-20.8l15.3,49.6L428.6,372.3z M389.4,271.3l49,6.7l-25.7,23.9l-10.4,10.4l-49.6-7.3L389.4,271.3z"/>
	<path class="st0" d="M230.3,226c0.6,2.4,2.4,3.7,4.9,4.3l63,20.8c1.2,1.2,3.1,1.8,4.3,1.8c1.8,0,3.7-0.6,5.5-2.4l47.7-50.2l0,0l0,0
		l0,0c0.6-0.6,0.6-0.6,1.2-1.2v-0.6c0-0.6,0.6-0.6,0.6-1.2v-0.6c0-0.6,0-0.6,0-1.2v-0.6v-0.6c0,0,0,0,0-0.6c0,0,0,0,0-0.6
		l-24.5-64.3c-0.6-1.8-2.4-3.7-4.3-4.3l-65.5-22.6c-2.4-1.2-5.5,0-8,1.8l0,0l0,0l-47.7,50.2l0,0c-2.4,3.1-3.1,7.3-0.6,9.8L230.3,226
		z M301.3,236.4l-50.2-15.9l36.1-37.9l50.2,15.9L301.3,236.4z M320.3,136.7l17.7,46.5l-47.1-15.3l-17.1-46.5L320.3,136.7z
		 M258.4,122.6l18.4,49l-36.1,37.9l-18.4-49L258.4,122.6z"/>
</g>
</svg>
