<?xml version="1.0" encoding="utf-8"?>
<!-- Generator: Adobe Illustrator 22.1.0, SVG Export Plug-In . SVG Version: 6.00 Build 0)  -->
<svg version="1.1" id="Layer_1" xmlns="http://www.w3.org/2000/svg" xmlns:xlink="http://www.w3.org/1999/xlink" x="0px" y="0px"
	 viewBox="126.6 48.7 358.8 551.6" style="enable-background:new 126.6 48.7 358.8 551.6;" xml:space="preserve">
<style type="text/css">
	.st0{fill:#666666;}
	.st1{fill:#2199D5;}
</style>
<g>
	<path class="st0" d="M412.9,48.7H199.1c-39.9,0-72.4,32.5-72.4,72.4v406.7c0,39.9,32.5,72.4,72.4,72.4h213.9
		c39.9,0,72.4-32.5,72.4-72.4V121.2C485.4,81.2,452.9,48.7,412.9,48.7z M456.4,527.8c0,24-19.5,43.5-43.5,43.5H199.1
		c-24,0-43.5-19.5-43.5-43.5V121.2c0-24,19.5-43.5,43.5-43.5h213.9c24,0,43.5,19.5,43.5,43.5V527.8z"/>
	
		<ellipse transform="matrix(0.9996 -2.786476e-02 2.786476e-02 0.9996 -14.0321 8.7238)" class="st0" cx="306" cy="507.8" rx="29" ry="29"/>
	<path class="st0" d="M335,102.2h-58c-8,0-14.5,6.5-14.5,14.5c0,8,6.5,14.5,14.5,14.5h58c8,0,14.5-6.5,14.5-14.5
		C349.5,108.6,343,102.2,335,102.2z"/>
</g>
<g transform="translate(0,-992.36218)">
	<path class="st1" d="M211.7,1207.9c-9.1,1-15.7,11.2-12.9,20l10.5,34.6h-3.4c-8.6,0-15.6,7-15.6,15.6c0,8.6,7,15.6,15.6,15.6h12.7
		l4.6,15.6h-1.7c-8.6,0-15.6,7-15.6,15.6c0,8.6,7,15.6,15.6,15.6h11.2l12.9,43.3c2,6.2,8.3,11.2,14.8,11.2c6.6,0,12.9-4.9,14.8-11.2
		l12.9-43.3h38l12.9,43.3c2,6.2,8.3,11.2,14.8,11.2c6.6,0,12.9-4.9,14.8-11.2l12.9-43.3h11.2c8.6,0,15.6-7,15.6-15.6
		c0-8.6-7-15.6-15.6-15.6H391l4.6-15.6h12.7c8.6,0,15.6-7,15.6-15.6c0-8.6-7-15.6-15.6-15.6h-3.4l10.5-34.6
		c3.9-9.6-4.5-20.4-14.8-20c-6.9,0.3-13.5,4.2-14.8,11l-13.1,43.6h-37.5l-13.1-43.6c-2-6.3-8.3-11-14.8-11c-6.6,0-12.9,4.7-14.8,11
		l-13.1,43.6h-37.5l-13.1-43.6C226.5,1212,218.8,1207.6,211.7,1207.9L211.7,1207.9z M250.9,1293.6h19l-4.6,15.6h-9.7L250.9,1293.6
		L250.9,1293.6z M302.2,1293.6h9.7l4.6,15.6h-19L302.2,1293.6L302.2,1293.6z M344.3,1293.6h19l-4.6,15.6h-9.7L344.3,1293.6
		L344.3,1293.6z"/>
</g>
</svg>
