<?xml version="1.0" encoding="utf-8"?>
<!-- Generator: Adobe Illustrator 22.1.0, SVG Export Plug-In . SVG Version: 6.00 Build 0)  -->
<svg version="1.1" id="Layer_1" xmlns="http://www.w3.org/2000/svg" xmlns:xlink="http://www.w3.org/1999/xlink" x="0px" y="0px"
	 viewBox="126.6 48.7 485.4 551.6" style="enable-background:new 126.6 48.7 485.4 551.6;" xml:space="preserve">
<style type="text/css">
	.st0{fill:#666666;}
	.st1{fill:#FFFFFF;}
	.st2{fill:#2199D5;}
</style>
<g>
	<path class="st0" d="M412.9,48.7H199.1c-39.9,0-72.4,32.5-72.4,72.4v406.7c0,39.9,32.5,72.4,72.4,72.4h213.9
		c39.9,0,72.4-32.5,72.4-72.4V121.2C485.4,81.2,452.9,48.7,412.9,48.7z M456.4,527.8c0,24-19.5,43.5-43.5,43.5H199.1
		c-24,0-43.5-19.5-43.5-43.5V121.2c0-24,19.5-43.5,43.5-43.5h213.9c24,0,43.5,19.5,43.5,43.5V527.8z"/>
	
		<ellipse transform="matrix(0.9996 -2.786476e-02 2.786476e-02 0.9996 -14.0321 8.7238)" class="st0" cx="306" cy="507.8" rx="29" ry="29"/>
	<path class="st0" d="M335,102.2h-58c-8,0-14.5,6.5-14.5,14.5c0,8,6.5,14.5,14.5,14.5h58c8,0,14.5-6.5,14.5-14.5
		C349.5,108.6,343,102.2,335,102.2z"/>
</g>
<g transform="translate(0,-992.36218)">
	<circle class="st1" cx="474.7" cy="1294.2" r="118.8"/>
	<path class="st2" d="M473.2,1153.4c-76.4,0-138.6,62.2-138.6,138.7c0,76.4,62.2,138.7,138.6,138.7s138.6-62.2,138.6-138.7
		C611.8,1215.6,549.6,1153.4,473.2,1153.4z M473.2,1176.5c63.9,0,115.5,51.6,115.5,115.5c0,63.9-51.6,115.5-115.5,115.5
		c-63.9,0-115.5-51.6-115.5-115.5S409.2,1176.5,473.2,1176.5z M402.4,1228.5c-6.8,0.7-11.6,8.3-9.6,14.8l7.8,25.6h-2.5
		c-6.4,0-11.6,5.2-11.6,11.6c0,6.4,5.2,11.6,11.6,11.6h9.4l3.4,11.6h-1.3c-6.4,0-11.6,5.2-11.6,11.6s5.2,11.6,11.6,11.6h8.3
		l9.6,32.1c1.5,4.6,6.1,8.3,11,8.3c4.9,0,9.5-3.7,11-8.3l9.6-32.1h28.2l9.6,32.1c1.5,4.6,6.1,8.3,11,8.3c4.9,0,9.5-3.7,11-8.3
		l9.6-32.1h8.3c6.4,0,11.6-5.2,11.6-11.6s-5.2-11.6-11.6-11.6h-1.3l3.4-11.6h9.4c6.4,0,11.6-5.2,11.6-11.6s-5.2-11.6-11.6-11.6h-2.5
		l7.8-25.6c2.9-7.1-3.3-15.1-11-14.8c-5.1,0.2-10,3.1-11,8.1l-9.7,32.3H494l-9.7-32.3c-1.5-4.6-6.1-8.1-11-8.1
		c-4.9,0-9.5,3.5-11,8.1l-9.7,32.3h-27.8l-9.7-32.3C413.4,1231.4,407.7,1228.2,402.4,1228.5L402.4,1228.5z M431.5,1292h14.1
		l-3.4,11.6h-7.2L431.5,1292L431.5,1292z M469.6,1292h7.2l3.4,11.6h-14.1L469.6,1292L469.6,1292z M500.8,1292h14.1l-3.4,11.6h-7.2
		L500.8,1292L500.8,1292z"/>
</g>
</svg>
