<?xml version="1.0" encoding="utf-8"?>
<!-- Generator: Adobe Illustrator 22.1.0, SVG Export Plug-In . SVG Version: 6.00 Build 0)  -->
<svg version="1.1" id="Layer_1" xmlns="http://www.w3.org/2000/svg" xmlns:xlink="http://www.w3.org/1999/xlink" x="0px" y="0px"
	 viewBox="0 13.5 612 612" style="enable-background:new 0 13.5 612 612;" xml:space="preserve">
<style type="text/css">
	.st0{fill:#2199D5;}
</style>
<g transform="translate(-91.214475,-152.15558)">
	<path class="st0" d="M391.6,165.7C223.3,168.8,89.2,307.2,91.2,475.4c2.1,168.3,139.6,303.3,307.9,302.2
		c168.3-1,304.1-137.7,304.1-306l-0.1-7.5C699,295.9,559.8,162.6,391.6,165.7z M392.6,224.1c136.2-2.5,248.8,105.4,252.2,241.5
		l0.1,6.1c0,136.2-109.9,246.8-246.1,247.6c-136.2,0.8-247.5-108.4-249.2-244.6C147.9,338.5,256.5,226.6,392.6,224.1z M529.7,325.8
		L356.9,531.7l-99.7-83.7l-39.1,46.6l99.7,83.7l46.6,39.1v0l39.1-46.6L576.3,365L529.7,325.8L529.7,325.8z"/>
</g>
</svg>
