<?xml version="1.0" encoding="utf-8"?>
<!-- Generator: Adobe Illustrator 22.1.0, SVG Export Plug-In . SVG Version: 6.00 Build 0)  -->
<svg version="1.1" id="Layer_1" xmlns="http://www.w3.org/2000/svg" xmlns:xlink="http://www.w3.org/1999/xlink" x="0px" y="0px"
	 viewBox="52.3 136.5 494.2 471.9" style="enable-background:new 52.3 136.5 494.2 471.9;" xml:space="preserve">
<style type="text/css">
	.st0{fill:#FFFFFF;}
</style>
<path class="st0" d="M520.8,351.3c-6.1-1.2-11.6-1.2-16.5,0.6c-9.8-36.1-30.6-67.3-58.1-90.6c-4.3-19,2.4-36.1,10.4-49
	c5.5-9.2-1.8-21.4-12.9-19.6c-33.7,4.3-52.6,19.6-63.6,33.7c-14.1-4.3-29.4-6.1-44.7-6.7c6.1,17.1,9.8,35.5,9.8,54.5
	c0,85.1-69.2,154.2-154.2,154.2c-33.7,0-64.9-11-90.6-29.4c0,53.2,23.3,101,60,133.4c12.2,11,19.6,26.3,19.6,42.8v21.4
	c0,6.7,5.5,11.6,11.6,11.6h71.6c6.7,0,11.6-5.5,11.6-11.6v-18.4c1.8,0,3.1,0,4.9,0h50.8c0.6,0,0.6,0,1.2,0v18.4
	c0,6.7,5.5,11.6,11.6,11.6h71.6c6.7,0,11.6-5.5,11.6-11.6v-17.1c0-17.1,8-33,20.8-44.1c26.9-23.3,47.1-54.5,56.3-89.4
	c4.9,1.8,10.4,1.8,16.5,0.6c13.5-3.1,22.6-15.9,22.6-29.4v-36.7C543.5,367.2,534.3,354.4,520.8,351.3z M432.7,353.8
	c-9.8,0-17.7-8-17.7-17.7c0-9.8,8-17.7,17.7-17.7s17.7,8,17.7,17.7C450.4,346.4,442.5,353.8,432.7,353.8z"/>
<path class="st0" d="M332.3,276.5c0,77.3-62.7,140-140,140c-77.3,0-140-62.7-140-140s62.7-140,140-140
	C268.8,136.5,332.3,199.2,332.3,276.5z M295.7,276.5c0-57-46.4-104.2-104.2-104.2c-57,0-104.2,46.4-104.2,104.2
	c0,57,46.4,104.2,104.2,104.2C249.3,379.9,295.7,333.5,295.7,276.5z M215.9,268.4c-6.5-4.1-13.8-6.5-21.2-9.8
	c-4.1-1.6-8.1-4.1-11.4-6.5c-7.3-5.7-5.7-14.7,2.4-17.9c2.4-0.8,4.9-1.6,7.3-1.6c9.8-0.8,18.7,0.8,26.9,5.7c4.1,2.4,5.7,1.6,7.3-3.3
	c1.6-4.9,2.4-9.8,4.1-13.8c0.8-3.3,0-5.7-3.3-6.5c-5.7-2.4-11.4-4.1-17.1-4.9c-8.1-0.8-8.1-1.6-8.1-9c0-11.4,0-11.4-11.4-11.4
	c-1.6,0-3.3,0-4.9,0c-4.9,0-5.7,0.8-6.5,6.5c0,2.4,0,4.9,0,7.3c0,6.5,0,6.5-6.5,9c-16.3,5.7-26,16.3-26.9,34.2
	c-0.8,15.5,7.3,26,19.5,33.4c8.1,4.9,16.3,7.3,24.4,11.4c3.3,1.6,6.5,3.3,9,4.9c8.1,6.5,6.5,17.1-3.3,22c-4.9,2.4-10.6,2.4-15.5,2.4
	c-8.1-0.8-16.3-3.3-24.4-7.3c-4.1-2.4-5.7-1.6-7.3,3.3c-1.6,4.1-2.4,8.1-3.3,12.2c0,4.1,0,5.7,5.7,8.1c6.5,3.3,13.8,4.9,22,6.5
	c5.7,0.8,5.7,0.8,6.5,7.3c0,2.4,0,5.7,0,8.1c0,3.3,1.6,5.7,4.9,5.7c4.1,0,8.1,0,12.2,0c3.3,0,4.9-1.6,4.9-4.9c0-4.1,0-7.3,0-11.4
	c0-4.1,1.6-5.7,4.9-6.5c8.1-2.4,15.5-6.5,21.2-13.8C244.4,308.2,237.9,280.6,215.9,268.4z"/>
</svg>
