<?xml version="1.0" encoding="utf-8"?>
<!-- Generator: Adobe Illustrator 22.1.0, SVG Export Plug-In . SVG Version: 6.00 Build 0)  -->
<svg version="1.1" id="Layer_1" xmlns="http://www.w3.org/2000/svg" xmlns:xlink="http://www.w3.org/1999/xlink" x="0px" y="0px"
	 viewBox="126.6 48.7 457.9 551.6" style="enable-background:new 126.6 48.7 457.9 551.6;" xml:space="preserve">
<style type="text/css">
	.st0{fill:#666666;}
	.st1{fill:#2199D5;}
</style>
<g>
	<path class="st0" d="M412.9,48.7H199.1c-39.9,0-72.4,32.5-72.4,72.4v406.7c0,39.9,32.5,72.4,72.4,72.4h213.9
		c39.9,0,72.4-32.5,72.4-72.4V121.2C485.4,81.2,452.9,48.7,412.9,48.7z M456.4,527.8c0,24-19.5,43.5-43.5,43.5H199.1
		c-24,0-43.5-19.5-43.5-43.5V121.2c0-24,19.5-43.5,43.5-43.5h213.9c24,0,43.5,19.5,43.5,43.5V527.8z"/>
	
		<ellipse transform="matrix(0.9996 -2.786476e-02 2.786476e-02 0.9996 -14.0321 8.7238)" class="st0" cx="306" cy="507.8" rx="29" ry="29"/>
	<path class="st0" d="M335,102.2h-58c-8,0-14.5,6.5-14.5,14.5c0,8,6.5,14.5,14.5,14.5h58c8,0,14.5-6.5,14.5-14.5
		C349.5,108.6,343,102.2,335,102.2z"/>
</g>
<path class="st1" d="M311.3,360.1c17.1-23.3-1.2-24.5-4.3-24.5l0,0l0,0c-3.1,0-21.4,1.2-4.3,24.5l-8.6,37.9h-84.5v-27.5
	c0-5.5,2.4-11,6.7-14.7c24.5-20.2,51.4-33.7,56.9-36.7c0.6,0,1.2-0.6,1.2-1.8v-38.6c-4.9-3.1-8-8.6-8-15.3v-35.5
	c0-22,17.7-40.4,40.4-40.4l0,0c22,0,40.4,17.7,40.4,40.4v35.5c0,6.1-3.1,11.6-8,15.3c0,0,0,31.8,0,38.6c0,0.6,0.6,1.2,1.2,1.8
	c5.5,2.4,32.4,15.9,56.9,36.7c4.3,3.7,6.7,9.2,6.7,14.7V398h-84.5L311.3,360.1z"/>
<polygon class="st1" points="386.2,282.4 510.9,282.4 510.9,319.2 584.6,264 510.9,208.7 510.9,245.6 386.2,245.6 "/>
</svg>
